<?xml version="1.0" encoding="utf-8"?>
<!-- Generator: Adobe Illustrator 16.0.3, SVG Export Plug-In . SVG Version: 6.00 Build 0)  -->
<!DOCTYPE svg PUBLIC "-//W3C//DTD SVG 1.0//EN" "http://www.w3.org/TR/2001/REC-SVG-20010904/DTD/svg10.dtd">
<svg version="1.0" id="Layer_1" xmlns="http://www.w3.org/2000/svg" xmlns:xlink="http://www.w3.org/1999/xlink" x="0px" y="0px"
	 width="267.335px" height="233.919px" viewBox="0 0 267.335 233.919" enable-background="new 0 0 267.335 233.919"
	 xml:space="preserve">
<path fill="#D7242A" d="M265.769,79.54c-1.043-1.044-2.379-1.567-4.002-1.567h-76.581c10.79,0,19.985-3.799,27.587-11.4
	c7.598-7.598,11.4-16.795,11.4-27.586s-3.803-19.985-11.4-27.586C205.171,3.802,195.976,0,185.186,0
	c-12.417,0-22.164,4.468-29.24,13.401l-22.278,28.718L111.39,13.401C104.311,4.468,94.564,0,82.15,0
	C71.359,0,62.162,3.802,54.563,11.4c-7.601,7.601-11.4,16.795-11.4,27.586s3.799,19.988,11.4,27.586
	c7.599,7.601,16.796,11.4,27.587,11.4H5.569c-1.626,0-2.958,0.522-4.003,1.567C0.522,80.583,0,81.919,0,83.542v55.695
	c0,1.626,0.522,2.959,1.566,4.003c1.044,1.044,2.377,1.566,4.003,1.566h16.708v72.403c0,4.643,1.624,8.589,4.874,11.836
	c3.247,3.25,7.193,4.873,11.835,4.873h189.363c4.641,0,8.586-1.623,11.836-4.873c3.246-3.247,4.873-7.193,4.873-11.836v-72.403
	h16.709c1.623,0,2.959-0.522,4.002-1.566c1.045-1.044,1.566-2.377,1.566-4.003V83.542C267.335,81.919,266.814,80.583,265.769,79.54z
	 M173.177,27.673c3.016-3.595,7.019-5.396,12.009-5.396c4.64,0,8.585,1.626,11.835,4.874c3.248,3.25,4.873,7.196,4.873,11.835
	c0,4.642-1.625,8.588-4.873,11.835c-3.25,3.25-7.195,4.873-11.835,4.873h-33.765L173.177,27.673z M70.315,50.822
	c-3.25-3.247-4.874-7.193-4.874-11.835c0-4.639,1.624-8.585,4.874-11.835c3.247-3.247,7.193-4.874,11.835-4.874
	c4.987,0,8.99,1.8,12.009,5.396l21.93,28.021H82.15C77.508,55.695,73.562,54.071,70.315,50.822z M140.497,207.003
	c-2.227,1.979-4.8,2.969-7.719,2.969c-3.019,0-5.654-0.978-7.905-2.932c-2.252-1.955-3.377-4.688-3.377-8.202
	c0-3.118,1.088-5.74,3.266-7.868c2.177-2.127,4.849-3.192,8.017-3.192c3.117,0,5.74,1.064,7.868,3.192
	c2.127,2.128,3.192,4.75,3.192,7.868C143.837,202.302,142.724,205.024,140.497,207.003z M168.22,138.27
	c-1.708,3.167-3.737,5.901-6.086,8.202c-2.351,2.301-6.569,6.173-12.656,11.616c-1.683,1.534-3.032,2.883-4.045,4.045
	c-1.015,1.163-1.77,2.227-2.264,3.191c-0.495,0.965-0.879,1.93-1.15,2.895c-0.273,0.965-0.681,2.661-1.225,5.084
	c-0.94,5.147-3.885,7.719-8.833,7.719c-2.573,0-4.739-0.841-6.495-2.523c-1.757-1.682-2.635-4.181-2.635-7.497
	c0-4.156,0.643-7.756,1.93-10.8c1.286-3.043,2.994-5.715,5.122-8.016c2.127-2.301,4.998-5.035,8.61-8.202
	c3.166-2.771,5.456-4.862,6.866-6.272c1.41-1.411,2.598-2.981,3.563-4.713c0.965-1.731,1.447-3.612,1.447-5.641
	c0-3.958-1.473-7.299-4.417-10.021c-2.944-2.721-6.743-4.083-11.394-4.083c-5.444,0-9.452,1.373-12.024,4.12
	c-2.574,2.746-4.75,6.792-6.532,12.136c-1.683,5.592-4.875,8.388-9.575,8.388c-2.771,0-5.11-0.977-7.014-2.932
	c-1.906-1.954-2.858-4.07-2.858-6.346c0-4.701,1.509-9.464,4.528-14.289c3.018-4.825,7.423-8.82,13.212-11.987
	c5.79-3.167,12.544-4.75,20.264-4.75c7.174,0,13.509,1.324,19.002,3.971c5.493,2.648,9.735,6.248,12.729,10.8
	c2.994,4.553,4.491,9.501,4.491,14.845C170.781,131.417,169.927,135.103,168.22,138.27z"/>
</svg>
